<svg width="16" height="17" viewBox="0 0 16 17" fill="none" xmlns="http://www.w3.org/2000/svg">
<rect x="0.183908" y="0.933908" width="15.6322" height="15.6322" rx="7.81609" fill="white"/>
<rect x="0.183908" y="0.933908" width="15.6322" height="15.6322" rx="7.81609" stroke="#D1D5DB" stroke-width="0.367816"/>
<path d="M4.41357 6.81899C4.41357 9.86598 6.88383 12.3362 9.93082 12.3362H10.7584C10.9779 12.3362 11.1884 12.249 11.3436 12.0938C11.4988 11.9386 11.586 11.7281 11.586 11.5086V11.004C11.586 10.8142 11.4569 10.6487 11.2726 10.6027L9.64576 10.1959C9.48392 10.1555 9.31399 10.2161 9.21431 10.3493L8.85753 10.8249C8.7538 10.9632 8.57468 11.0242 8.41247 10.9646C7.81031 10.7433 7.26347 10.3936 6.80982 9.93999C6.35616 9.48634 6.00654 8.93949 5.78516 8.33734C5.72557 8.17513 5.78663 7.996 5.92493 7.89228L6.40052 7.5355C6.53403 7.43582 6.59436 7.26552 6.5539 7.10405L6.14709 5.4772C6.12471 5.38771 6.07306 5.30826 6.00035 5.25148C5.92765 5.1947 5.83805 5.16385 5.7458 5.16382H5.24116C5.02167 5.16382 4.81117 5.25101 4.65597 5.40621C4.50077 5.56142 4.41357 5.77192 4.41357 5.9914V6.81899Z" stroke="#6B7280" stroke-width="0.551724" stroke-linecap="round" stroke-linejoin="round"/>
</svg>
