<svg width="126" height="60" viewBox="0 0 126 60" fill="none" xmlns="http://www.w3.org/2000/svg">
<path d="M25.167 27.5241C26.0976 26.6258 26.6824 25.3515 26.6824 23.9376C26.6824 21.2139 24.517 19 21.8515 19C19.1885 19 17.0231 21.2132 17.0231 23.9376C17.0231 25.3515 17.6073 26.6258 18.5386 27.5241L13.8164 30.9082V41H17.087V36.9489H17.0895V32.6498L21.8515 29.2372L26.616 32.6498V37.652H19.5634L17.558 41H29.8891V30.9082L25.167 27.5241ZM22.8176 25.7134C22.5324 25.875 22.2024 25.9661 21.8515 25.9661C21.5025 25.9661 21.1731 25.8743 20.888 25.7134C20.2798 25.3645 19.8675 24.7021 19.8675 23.9383C19.8675 22.8158 20.7558 21.9105 21.8515 21.9105C22.9497 21.9105 23.838 22.8158 23.838 23.9383C23.838 24.7015 23.4258 25.3638 22.8176 25.7134Z" fill="#08CF65"/>
<path d="M39.5716 19.2729C40.9956 19.2729 42.1852 19.7733 43.1393 20.7741C44.0945 21.776 44.5716 23.0226 44.5716 24.5163C44.5716 26.01 44.0945 27.2578 43.1393 28.2585C42.1852 29.2593 40.9956 29.7608 39.5716 29.7608H35.4808V35.9579H33.8906V19.2729H39.5716ZM39.5716 28.188C40.5563 28.188 41.3707 27.8426 42.015 27.1508C42.6592 26.4601 42.9803 25.5812 42.9803 24.5174C42.9803 23.4525 42.6582 22.5746 42.015 21.8839C41.3707 21.1922 40.5563 20.8468 39.5716 20.8468H35.4808V28.188H39.5716Z" fill="#0F2830"/>
<path d="M47.2807 26.0185C47.977 24.573 49.1747 23.8491 50.871 23.8491V25.3749C49.8404 25.3749 48.9851 25.6924 48.3032 26.3286C47.6212 26.9648 47.2807 27.9656 47.2807 29.332V35.9589H45.7812V24.0405H47.2807V26.0185Z" fill="#0F2830"/>
<path d="M60.9143 34.4449C59.7553 35.6445 58.3424 36.2443 56.6758 36.2443C55.0091 36.2443 53.5963 35.6445 52.4372 34.4449C51.2782 33.2452 50.6992 31.7633 50.6992 29.9991C50.6992 28.2349 51.2792 26.753 52.4372 25.5534C53.5963 24.3537 55.0091 23.7539 56.6758 23.7539C58.3424 23.7539 59.7553 24.3537 60.9143 25.5534C62.0733 26.753 62.6523 28.2349 62.6523 29.9991C62.6523 31.7633 62.0723 33.2452 60.9143 34.4449ZM53.4943 33.3489C54.3577 34.2631 55.4179 34.7197 56.6758 34.7197C57.9326 34.7197 58.9938 34.2631 59.8572 33.3489C60.7206 32.4358 61.1528 31.3196 61.1528 30.0002C61.1528 28.6808 60.7206 27.5645 59.8572 26.6514C58.9938 25.7383 57.9326 25.2807 56.6758 25.2807C55.4179 25.2807 54.3577 25.7373 53.4943 26.6514C52.6309 27.5656 52.1987 28.6819 52.1987 30.0002C52.1987 31.3185 52.6299 32.4348 53.4943 33.3489Z" fill="#0F2830"/>
<path d="M70.3202 23.7539C71.941 23.7539 73.3232 24.358 74.468 25.5662C75.6117 26.7744 76.1836 28.252 76.1836 30.0002C76.1836 31.7483 75.6117 33.226 74.468 34.4342C73.3242 35.6424 71.941 36.2465 70.3202 36.2465C68.3049 36.2465 66.7748 35.3719 65.73 33.6237V40.7275H64.2305V24.0405H65.73V26.3767C66.7758 24.6285 68.3059 23.7539 70.3202 23.7539ZM67.0256 33.3489C67.889 34.2631 68.9491 34.7197 70.207 34.7197C71.4639 34.7197 72.5251 34.2631 73.3885 33.3489C74.2519 32.4358 74.6841 31.3196 74.6841 30.0002C74.6841 28.6808 74.2519 27.5645 73.3885 26.6514C72.5251 25.7383 71.4639 25.2807 70.207 25.2807C68.9491 25.2807 67.889 25.7373 67.0256 26.6514C66.1622 27.5656 65.73 28.6819 65.73 30.0002C65.73 31.3185 66.1622 32.4348 67.0256 33.3489Z" fill="#0F2830"/>
<path d="M112.024 28.5814C111.586 28.513 110.355 28.414 110.148 28.4508L110.023 28.474L110.001 28.6067C109.897 29.2228 109.637 29.7504 109.203 30.2086C109.169 30.1443 109.137 30.0801 109.107 30.0211C109.011 29.8263 108.911 29.6293 108.798 29.4387C107.942 28.057 106.802 27.1418 105.414 26.7247C103.573 26.1644 101.505 27.225 100.254 28.6657C98.8728 30.2549 98.6405 32.0885 97.5348 33.8557C97.0161 34.6856 96.3436 35.4122 95.565 35.9799C94.9281 36.4433 94.01 36.7519 93.314 36.2548C92.1146 35.3996 92.4468 32.8036 92.6068 31.5535C93.7909 31.2691 94.7651 30.8478 95.5722 30.2865C96.8449 29.3924 99.0522 27.4946 99.5709 24.7785C99.8175 23.4968 99.3997 22.2203 98.509 21.5221C96.7013 20.1172 94.2444 21.3704 93.0796 22.7111C92.0086 23.9286 91.4848 25.4893 91.068 26.9975C90.8306 27.8663 90.642 28.6341 90.4912 29.3513C89.2694 29.4956 85.0974 29.5029 82.8066 29.4893V23.9675H90.7531L91.2188 21.4168H80.1836V38.6802H82.8076V32.0284C84.9792 32.0463 88.9351 32.0442 90.0928 31.9484C89.9307 33.6998 90.0591 35.1574 90.479 36.3769C90.8937 37.5828 91.7212 38.4675 92.8034 38.8656C93.2223 39.0214 93.6635 39.0951 94.1119 39.0951C94.9281 39.0951 95.7688 38.8477 96.5403 38.3621C97.5206 37.7481 98.3919 36.9341 99.097 35.9925C100.115 37.8303 101.985 38.9698 104.065 38.9698C104.2 38.9698 104.336 38.9656 104.476 38.9582C105.824 38.8592 107 38.339 107.966 37.4069C109.27 36.1463 109.908 34.5739 109.857 32.7404V32.6414C111.356 31.6124 112.172 29.8905 112.18 28.7721L112.184 28.6046L112.024 28.5814ZM93.4342 27.6873C93.743 26.5646 94.1374 25.2871 94.9047 24.412C95.3571 23.8917 96.1469 23.4515 96.6717 23.4515C96.8113 23.4515 96.9356 23.481 97.0263 23.5526C97.1415 23.6421 97.222 23.9559 97.1598 24.2856C96.8113 26.1076 95.1503 27.5104 94.1903 28.1823C93.8979 28.3866 93.5565 28.5698 93.1631 28.7257C93.2487 28.3982 93.3354 28.0517 93.4342 27.6873ZM103.068 29.3576C103.174 29.0554 103.394 28.8879 103.758 28.8352C103.862 28.8194 103.969 28.8121 104.075 28.8121C104.461 28.8121 104.856 28.9153 105.272 29.1196C106.022 29.484 106.601 30.0643 107.043 30.8889C107.116 31.0216 107.178 31.1596 107.244 31.2996L107.253 31.3133C107.099 31.3597 106.943 31.3871 106.801 31.405C106.337 31.4734 105.928 31.4808 105.548 31.4344C104.96 31.3639 104.471 31.2143 104.049 30.9805C103.628 30.7446 103.328 30.4329 103.134 30.0316C103.013 29.7799 102.991 29.5661 103.068 29.3576ZM104.031 36.676C103.013 36.6644 102.157 36.2727 101.497 35.5049C100.803 34.7045 100.492 33.8093 100.563 32.8278C100.605 32.2612 100.675 31.5945 100.982 31.1132C101.02 31.0564 101.06 30.9984 101.099 30.9437C101.128 31.0142 101.164 31.0858 101.199 31.1543C101.508 31.7799 101.974 32.3117 102.59 32.7383C103.194 33.1553 103.865 33.4397 104.649 33.6019C105.458 33.7735 106.21 33.8041 106.955 33.7009C107.15 33.6714 107.341 33.6366 107.532 33.6019L107.552 33.5997C107.338 35.1342 106.002 36.6834 104.031 36.676Z" fill="#08CF65"/>
</svg>
