<svg width="126" height="61" viewBox="0 0 126 61" fill="none" xmlns="http://www.w3.org/2000/svg">
<path d="M25.167 28.0241C26.0976 27.1258 26.6824 25.8515 26.6824 24.4376C26.6824 21.7139 24.517 19.5 21.8515 19.5C19.1885 19.5 17.0231 21.7132 17.0231 24.4376C17.0231 25.8515 17.6073 27.1258 18.5386 28.0241L13.8164 31.4082V41.5H17.087V37.4489H17.0895V33.1498L21.8515 29.7372L26.616 33.1498V38.152H19.5634L17.558 41.5H29.8891V31.4082L25.167 28.0241ZM22.8176 26.2134C22.5324 26.375 22.2024 26.4661 21.8515 26.4661C21.5025 26.4661 21.1731 26.3743 20.888 26.2134C20.2798 25.8645 19.8675 25.2021 19.8675 24.4383C19.8675 23.3158 20.7558 22.4105 21.8515 22.4105C22.9497 22.4105 23.838 23.3158 23.838 24.4383C23.838 25.2015 23.4258 25.8638 22.8176 26.2134Z" fill="#08CF65"/>
<path d="M39.5716 19.7727C40.9956 19.7727 42.1852 20.2731 43.1393 21.2739C44.0945 22.2757 44.5716 23.5224 44.5716 25.0161C44.5716 26.5098 44.0945 27.7575 43.1393 28.7583C42.1852 29.7591 40.9956 30.2605 39.5716 30.2605H35.4808V36.4576H33.8906V19.7727H39.5716ZM39.5716 28.6877C40.5563 28.6877 41.3707 28.3424 42.015 27.6506C42.6592 26.9599 42.9803 26.081 42.9803 25.0171C42.9803 23.9522 42.6582 23.0744 42.015 22.3837C41.3707 21.6919 40.5563 21.3466 39.5716 21.3466H35.4808V28.6877H39.5716Z" fill="white"/>
<path d="M47.2807 26.5183C47.977 25.0727 49.1747 24.3489 50.871 24.3489V25.8746C49.8404 25.8746 48.9851 26.1922 48.3032 26.8284C47.6212 27.4645 47.2807 28.4653 47.2807 29.8318V36.4587H45.7812V24.5403H47.2807V26.5183Z" fill="white"/>
<path d="M60.9143 34.9444C59.7553 36.144 58.3424 36.7438 56.6758 36.7438C55.0091 36.7438 53.5963 36.144 52.4372 34.9444C51.2782 33.7447 50.6992 32.2628 50.6992 30.4986C50.6992 28.7345 51.2792 27.2525 52.4372 26.0529C53.5963 24.8532 55.0091 24.2534 56.6758 24.2534C58.3424 24.2534 59.7553 24.8532 60.9143 26.0529C62.0733 27.2525 62.6523 28.7345 62.6523 30.4986C62.6523 32.2628 62.0723 33.7447 60.9143 34.9444ZM53.4943 33.8484C54.3577 34.7626 55.4179 35.2192 56.6758 35.2192C57.9326 35.2192 58.9938 34.7626 59.8572 33.8484C60.7206 32.9353 61.1528 31.8191 61.1528 30.4997C61.1528 29.1803 60.7206 28.0641 59.8572 27.151C58.9938 26.2379 57.9326 25.7802 56.6758 25.7802C55.4179 25.7802 54.3577 26.2368 53.4943 27.151C52.6309 28.0651 52.1987 29.1814 52.1987 30.4997C52.1987 31.818 52.6299 32.9343 53.4943 33.8484Z" fill="white"/>
<path d="M70.3202 24.2534C71.941 24.2534 73.3232 24.8575 74.468 26.0657C75.6117 27.2739 76.1836 28.7516 76.1836 30.4997C76.1836 32.2479 75.6117 33.7255 74.468 34.9337C73.3242 36.1419 71.941 36.746 70.3202 36.746C68.3049 36.746 66.7748 35.8714 65.73 34.1232V41.227H64.2305V24.54H65.73V26.8762C66.7758 25.128 68.3059 24.2534 70.3202 24.2534ZM67.0256 33.8484C67.889 34.7626 68.9491 35.2192 70.207 35.2192C71.4639 35.2192 72.5251 34.7626 73.3885 33.8484C74.2519 32.9353 74.6841 31.8191 74.6841 30.4997C74.6841 29.1803 74.2519 28.0641 73.3885 27.151C72.5251 26.2379 71.4639 25.7802 70.207 25.7802C68.9491 25.7802 67.889 26.2368 67.0256 27.151C66.1622 28.0651 65.73 29.1814 65.73 30.4997C65.73 31.818 66.1622 32.9343 67.0256 33.8484Z" fill="white"/>
<path d="M112.024 29.0812C111.586 29.0127 110.355 28.9137 110.148 28.9506L110.023 28.9738L110.001 29.1065C109.897 29.7226 109.637 30.2502 109.203 30.7083C109.169 30.6441 109.137 30.5798 109.107 30.5209C109.011 30.326 108.911 30.1291 108.798 29.9385C107.942 28.5567 106.802 27.6415 105.414 27.2245C103.573 26.6642 101.505 27.7247 100.254 29.1654C98.8728 30.7547 98.6405 32.5882 97.5348 34.3554C97.0161 35.1853 96.3436 35.912 95.565 36.4796C94.9281 36.943 94.01 37.2516 93.314 36.7545C92.1146 35.8994 92.4468 33.3033 92.6068 32.0532C93.7909 31.7689 94.7651 31.3476 95.5722 30.7863C96.8449 29.8921 99.0522 27.9943 99.5709 25.2782C99.8175 23.9965 99.3997 22.7201 98.509 22.0218C96.7013 20.6169 94.2444 21.8702 93.0796 23.2109C92.0086 24.4283 91.4848 25.9891 91.068 27.4972C90.8306 28.3661 90.642 29.1338 90.4912 29.851C89.2694 29.9953 85.0974 30.0027 82.8066 29.989V24.4673H90.7531L91.2188 21.9165H80.1836V39.18H82.8076V32.5282C84.9792 32.5461 88.9351 32.544 90.0928 32.4481C89.9307 34.1996 90.0591 35.6571 90.479 36.8767C90.8937 38.0826 91.7212 38.9672 92.8034 39.3653C93.2223 39.5212 93.6635 39.5949 94.1119 39.5949C94.9281 39.5949 95.7688 39.3474 96.5403 38.8619C97.5206 38.2479 98.3919 37.4338 99.097 36.4923C100.115 38.3301 101.985 39.4696 104.065 39.4696C104.2 39.4696 104.336 39.4654 104.476 39.458C105.824 39.359 107 38.8387 107.966 37.9067C109.27 36.646 109.908 35.0737 109.857 33.2401V33.1411C111.356 32.1122 112.172 30.3903 112.18 29.2718L112.184 29.1044L112.024 29.0812ZM93.4342 28.1871C93.743 27.0644 94.1374 25.7869 94.9047 24.9117C95.3571 24.3915 96.1469 23.9512 96.6717 23.9512C96.8113 23.9512 96.9356 23.9807 97.0263 24.0523C97.1415 24.1419 97.222 24.4557 97.1598 24.7853C96.8113 26.6073 95.1503 28.0101 94.1903 28.682C93.8979 28.8863 93.5565 29.0696 93.1631 29.2255C93.2487 28.8979 93.3354 28.5514 93.4342 28.1871ZM103.068 29.8574C103.174 29.5551 103.394 29.3877 103.758 29.335C103.862 29.3192 103.969 29.3118 104.075 29.3118C104.461 29.3118 104.856 29.415 105.272 29.6194C106.022 29.9837 106.601 30.564 107.043 31.3887C107.116 31.5214 107.178 31.6593 107.244 31.7994L107.253 31.8131C107.099 31.8594 106.943 31.8868 106.801 31.9047C106.337 31.9732 105.928 31.9805 105.548 31.9342C104.96 31.8636 104.471 31.7141 104.049 31.4803C103.628 31.2444 103.328 30.9326 103.134 30.5314C103.013 30.2797 102.991 30.0659 103.068 29.8574ZM104.031 37.1758C103.013 37.1642 102.157 36.7724 101.497 36.0047C100.803 35.2043 100.492 34.3091 100.563 33.3275C100.605 32.7609 100.675 32.0943 100.982 31.613C101.02 31.5561 101.06 31.4982 101.099 31.4434C101.128 31.514 101.164 31.5856 101.199 31.6541C101.508 32.2796 101.974 32.8115 102.59 33.238C103.194 33.6551 103.865 33.9394 104.649 34.1016C105.458 34.2733 106.21 34.3038 106.955 34.2006C107.15 34.1711 107.341 34.1364 107.532 34.1016L107.552 34.0995C107.338 35.634 106.002 37.1832 104.031 37.1758Z" fill="#08CF65"/>
</svg>
