<?xml version="1.0" encoding="UTF-8"?>
<svg version="1.1" xmlns="http://www.w3.org/2000/svg" width="4409" height="1060">
<path d="M0 0 C9.72831749 8.35388456 17.71250481 17.63480725 24.63818359 28.40673828 C25.68425781 30.01935547 25.68425781 30.01935547 26.75146484 31.66455078 C46.82812478 64.6448504 51.73181699 107.04158341 43.63818359 144.40673828 C43.41775391 145.43911621 43.19732422 146.47149414 42.97021484 147.53515625 C35.39349334 182.09643152 21.76505479 215.57058206 2.63818359 245.40673828 C1.94692383 246.48906738 1.94692383 246.48906738 1.24169922 247.59326172 C-8.37883117 262.5506818 -18.90219292 276.80567 -30.36181641 290.40673828 C-31.01005371 291.18235107 -31.01005371 291.18235107 -31.67138672 291.97363281 C-45.10140417 308.02056346 -59.3536018 324.05418783 -75.31494141 337.64111328 C-77.8189649 339.80107248 -80.24179338 342.04161821 -82.67431641 344.28173828 C-88.0767916 349.2025113 -93.66419222 353.83374318 -99.36181641 358.40673828 C-100.49380427 359.33063277 -101.62529128 360.25514118 -102.75634766 361.18017578 C-124.13384039 378.58301695 -146.90256595 394.63920307 -171.36181641 407.40673828 C-172.02455566 407.75397949 -172.68729492 408.1012207 -173.37011719 408.45898438 C-177.9923264 410.86372807 -182.66146821 413.15907758 -187.36181641 415.40673828 C-188.4460791 415.93001709 -188.4460791 415.93001709 -189.55224609 416.46386719 C-214.14477861 428.24183921 -240.12326497 436.2312302 -266.36181641 443.40673828 C-267.19390625 443.63490234 -268.02599609 443.86306641 -268.88330078 444.09814453 C-272.20355327 444.97334473 -274.89367806 445.40673828 -278.36181641 445.40673828 C-278.54248657 447.22431641 -278.54248657 447.22431641 -278.72680664 449.07861328 C-279.51951317 457.03726854 -280.31526757 464.99548026 -281.14199829 472.95068359 C-281.48649535 476.26907061 -281.82676021 479.5878866 -282.16674805 482.90673828 C-282.33847919 484.57358841 -282.51198238 486.24025692 -282.68725586 487.90673828 C-287.63469701 535.03399163 -290.26950595 588.75710692 -266.36181641 631.40673828 C-265.78302734 632.43927734 -265.20423828 633.47181641 -264.60791016 634.53564453 C-255.46560844 649.78695528 -241.76553958 658.80521607 -225.01416016 664.15673828 C-199.67834329 670.41464159 -172.53169477 660.55785214 -150.80419922 647.91503906 C-143.28795092 643.27335754 -136.30369424 637.85521768 -129.36181641 632.40673828 C-128.79994629 631.96942383 -128.23807617 631.53210938 -127.65917969 631.08154297 C-121.23821832 626.06004848 -115.2193439 620.6269098 -109.25634766 615.07861328 C-106.70406251 612.72265776 -104.10605395 610.43731827 -101.48681641 608.15673828 C-91.1600274 598.87759453 -81.92390448 588.3111351 -73.36181641 577.40673828 C-72.63349609 576.50826172 -71.90517578 575.60978516 -71.15478516 574.68408203 C-58.02166145 558.15333428 -46.7484757 540.15793152 -36.60351562 521.66845703 C-35.51631193 519.68814736 -34.41306072 517.71815359 -33.30322266 515.75048828 C-22.03822785 495.32829395 -13.12130227 473.6469973 -3.98681641 452.21923828 C30.83049401 370.56636521 30.83049401 370.56636521 56.63818359 336.40673828 C57.28303711 335.54773926 57.28303711 335.54773926 57.94091797 334.67138672 C72.65567081 315.17702438 90.11019146 296.10079706 109.63818359 281.40673828 C110.84574619 280.47122583 112.05273421 279.53497143 113.25927734 278.59814453 C156.70984538 245.13856659 208.89813857 221.83108621 264.38818359 222.09423828 C265.22778625 222.09672577 266.06738892 222.09921326 266.93243408 222.10177612 C279.05839859 222.15734949 290.82995667 222.39144126 302.63818359 225.40673828 C303.52441406 225.62716797 304.41064453 225.84759766 305.32373047 226.07470703 C360.52178519 240.16306941 412.78029156 272.93467843 447.63818359 318.40673828 C448.72221407 319.76503327 449.80833674 321.12165989 450.89599609 322.47705078 C462.19573492 336.64037969 471.64735521 351.28621824 480.26318359 367.21923828 C480.88 368.35941406 481.49681641 369.49958984 482.13232422 370.67431641 C486.88829651 379.60181795 486.88829651 379.60181795 487.63818359 383.40673828 C510.54510958 366.38900426 519.96559954 333.86987804 525.63818359 307.40673828 C530.7790277 305.70949169 535.36325042 305.11275862 540.79052734 305.20361328 C541.95623512 305.21421783 541.95623512 305.21421783 543.14549255 305.22503662 C552.51652461 305.35956717 561.85580757 305.98014755 571.20068359 306.65673828 C572.12064117 306.72132233 573.04059875 306.78590637 573.98843384 306.85244751 C591.62011948 308.09933987 609.12593868 310.02209992 626.63818359 312.40673828 C626.85648777 329.84546889 626.85648777 329.84546889 625.51318359 338.09423828 C625.38194092 338.92181641 625.25069824 339.74939453 625.11547852 340.60205078 C619.82157773 371.70481407 606.08953976 401.93834517 587.63818359 427.40673828 C586.49736328 428.98648438 586.49736328 428.98648438 585.33349609 430.59814453 C576.7878647 442.17466595 567.52835517 452.97459097 557.63818359 463.40673828 C556.92662109 464.16083984 556.21505859 464.91494141 555.48193359 465.69189453 C547.60830757 473.80753775 538.52386276 480.53791328 529.57568359 487.40673828 C528.82488525 487.98319092 528.07408691 488.55964355 527.30053711 489.15356445 C526.59598389 489.69086182 525.89143066 490.22815918 525.16552734 490.78173828 C524.21794556 491.50490234 524.21794556 491.50490234 523.2512207 492.24267578 C521.63818359 493.40673828 521.63818359 493.40673828 519.63818359 494.40673828 C519.67298828 496.19337891 519.67298828 496.19337891 519.70849609 498.01611328 C520.63525918 567.97970537 499.51622666 636.94679494 450.63818359 688.40673828 C449.54827989 689.67194118 448.46457799 690.94252235 447.38818359 692.21923828 C438.67576406 702.20564369 429.08227028 711.26266514 418.63818359 719.40673828 C417.57154389 720.2733413 416.50651225 721.14192631 415.44287109 722.01220703 C377.4368997 752.87490065 331.03217419 770.60347551 282.63818359 776.40673828 C281.86152344 776.50245117 281.08486328 776.59816406 280.28466797 776.69677734 C271.05425481 777.68956272 261.78626243 777.65038774 252.51318359 777.65673828 C251.62590576 777.65741302 250.73862793 777.65808777 249.82446289 777.65878296 C235.24755474 777.64122951 221.02139044 776.94769777 206.63818359 774.40673828 C205.6344873 774.22981445 204.63079102 774.05289063 203.59667969 773.87060547 C161.13269232 766.13287181 120.17792442 748.86793996 86.63818359 721.40673828 C86.11063477 720.97538574 85.58308594 720.5440332 85.03955078 720.09960938 C59.67924987 699.265217 37.60159425 675.267739 21.63818359 646.40673828 C17.85736596 650.08444271 14.40920227 653.93664137 11.01318359 657.96923828 C5.81524918 664.08644224 0.47065772 670.03337755 -4.98974609 675.91699219 C-6.40984898 677.45889037 -7.81322375 679.01468413 -9.21337891 680.57470703 C-13.73896343 685.60296189 -18.28354256 690.41983469 -23.47900391 694.77392578 C-25.48980373 696.51773143 -27.32278126 698.37023439 -29.17431641 700.28173828 C-33.03484055 704.19494015 -37.18097408 707.63471557 -41.46728516 711.07080078 C-44.33228742 713.38290787 -47.12590305 715.76473351 -49.92431641 718.15673828 C-71.22456415 735.92533873 -95.19738869 751.69266245 -120.36181641 763.40673828 C-121.07789062 763.74060547 -121.79396484 764.07447266 -122.53173828 764.41845703 C-168.47923745 785.51308726 -223.32465495 790.61434822 -271.29931641 773.09423828 C-289.75873963 766.05172594 -307.51186974 756.50561926 -322.36181641 743.40673828 C-323.21388672 742.66423828 -324.06595703 741.92173828 -324.94384766 741.15673828 C-327.44940036 738.93984372 -329.91385206 736.68697913 -332.36181641 734.40673828 C-333.10044922 733.72224609 -333.83908203 733.03775391 -334.60009766 732.33251953 C-364.98592193 703.13406317 -379.98308536 662.52615277 -389.36181641 622.40673828 C-389.56645508 621.54338867 -389.77109375 620.68003906 -389.98193359 619.79052734 C-392.57253212 608.64598046 -394.12089459 597.3733781 -395.54931641 586.03173828 C-395.63426361 585.35913971 -395.71921082 584.68654114 -395.80673218 583.99356079 C-397.55481919 569.99237938 -398.51714668 556.10525817 -398.52978516 541.98876953 C-398.53301811 540.63856475 -398.53638349 539.28836028 -398.53987122 537.93815613 C-398.54580555 535.12209263 -398.54771744 532.30605953 -398.54711914 529.48999023 C-398.54703855 526.6660309 -398.55388302 523.84223611 -398.56762695 521.01831055 C-398.81063897 470.30438342 -398.81063897 470.30438342 -395.36181641 463.40673828 C-396.1462915 463.56142578 -396.9307666 463.71611328 -397.73901367 463.87548828 C-424.73608363 467.83435507 -453.53581976 466.51816831 -480.80712891 466.96533203 C-482.07915728 466.98638945 -483.35118565 467.00744686 -484.66176033 467.02914238 C-532.53342127 467.79830524 -580.42428023 467.51036147 -628.29931641 467.46923828 C-662.30994141 467.44861328 -696.32056641 467.42798828 -731.36181641 467.40673828 C-731.36181641 565.41673828 -731.36181641 663.42673828 -731.36181641 764.40673828 C-771.62181641 764.40673828 -811.88181641 764.40673828 -853.36181641 764.40673828 C-853.36181641 509.31673828 -853.36181641 254.22673828 -853.36181641 -8.59326172 C-684.73181641 -8.59326172 -516.10181641 -8.59326172 -342.36181641 -8.59326172 C-343.58424453 -0.64747894 -344.82952132 7.24560251 -346.31713867 15.13818359 C-346.50114227 16.12358627 -346.68514587 17.10898895 -346.87472534 18.12425232 C-347.47367137 21.32820963 -348.07574953 24.53156747 -348.67822266 27.73486328 C-349.09902669 29.97831875 -349.51975605 32.22178822 -349.94041443 34.465271 C-350.817256 39.13858889 -351.69580905 43.81158126 -352.57543945 48.484375 C-353.70496716 54.48609198 -354.82889497 60.48884306 -355.95143223 66.49187088 C-356.81603179 71.11098427 -357.68417767 75.72942575 -358.55335808 80.34767914 C-358.96967178 82.56273757 -359.38471893 84.77803443 -359.79849434 86.99356842 C-360.37392332 90.07243187 -360.95425376 93.15033115 -361.53588867 96.22802734 C-361.70681534 97.14843307 -361.877742 98.06883881 -362.05384827 99.01713562 C-363.24764233 105.29256421 -363.24764233 105.29256421 -364.36181641 106.40673828 C-366.31134004 106.50447244 -368.26446744 106.53045118 -370.21643925 106.52978611 C-372.13703508 106.53277268 -372.13703508 106.53277268 -374.09643084 106.53581959 C-375.5358908 106.53296599 -376.97535058 106.53002038 -378.41481018 106.5269928 C-379.92947515 106.52742837 -381.44414005 106.52830301 -382.95880455 106.52958196 C-387.14093232 106.53182975 -391.32303472 106.52780179 -395.50515926 106.5228039 C-400.00756957 106.51850363 -404.50997835 106.51994552 -409.01239014 106.52070618 C-416.81974695 106.52123168 -424.62709543 106.51808212 -432.43445015 106.51246834 C-443.72271061 106.50435691 -455.01096703 106.50173849 -466.29923009 106.50048035 C-484.61167977 106.49828926 -502.924125 106.49162765 -521.23657227 106.48217773 C-539.03019183 106.47300507 -556.82381019 106.46593499 -574.61743164 106.46166992 C-575.72458725 106.46140192 -576.83174286 106.46113393 -577.97244865 106.46085781 C-586.63054893 106.45877851 -595.28864925 106.45682154 -603.94674957 106.45490324 C-646.41844259 106.44546183 -688.8901245 106.42534536 -731.36181641 106.40673828 C-731.36181641 187.58673828 -731.36181641 268.76673828 -731.36181641 352.40673828 C-682.60431641 352.19017578 -682.60431641 352.19017578 -632.86181641 351.96923828 C-622.72140625 351.92613525 -612.58099609 351.88303223 -602.13330078 351.83862305 C-536.74183606 351.57875395 -536.74183606 351.57875395 -471.36181641 350.40673828 C-470.56910339 350.3867062 -469.77639038 350.36667412 -468.95965576 350.346035 C-459.67499155 350.1084038 -450.39323249 349.81180675 -441.11181641 349.46923828 C-439.93645325 349.42760559 -438.76109009 349.3859729 -437.55010986 349.34307861 C-417.4714717 348.63166123 -397.4124704 347.68377154 -377.36181641 346.40673828 C-377.05812134 344.87799072 -377.05812134 344.87799072 -376.74829102 343.31835938 C-373.59915262 327.77995501 -369.77313427 312.40820235 -365.92431641 297.03173828 C-365.66164223 295.98073755 -365.66164223 295.98073755 -365.3936615 294.90850449 C-358.97365429 269.23108185 -352.12202978 243.71564424 -344.36181641 218.40673828 C-343.98633667 217.17778839 -343.98633667 217.17778839 -343.60327148 215.92401123 C-334.00669749 184.57225531 -322.76869508 153.89771945 -308.36181641 124.40673828 C-307.92691895 123.51631836 -307.49202148 122.62589844 -307.04394531 121.70849609 C-288.04023261 83.25077909 -260.98151034 45.23608068 -226.05957031 19.66015625 C-224.3306957 18.38376248 -222.63262364 17.07332271 -220.93603516 15.75439453 C-158.70226227 -32.04623811 -65.17024999 -54.07660744 0 0 Z M-172.61572266 125.94970703 C-174.92076085 128.72777915 -177.14301814 131.55947212 -179.36181641 134.40673828 C-180.11849609 135.31294922 -180.87517578 136.21916016 -181.65478516 137.15283203 C-213.27469463 175.99425427 -227.92574205 228.00296939 -241.29931641 275.40673828 C-241.56844849 276.35984894 -241.83758057 277.31295959 -242.11486816 278.29495239 C-245.76702173 291.27563504 -249.15909475 304.3081661 -252.36181641 317.40673828 C-216.64416926 305.89934074 -186.19761029 281.89587826 -158.36181641 257.40673828 C-157.43498047 256.59333984 -156.50814453 255.77994141 -155.55322266 254.94189453 C-148.72162558 248.80799248 -142.19309263 242.36987126 -135.67431641 235.90673828 C-134.79509521 235.04056885 -133.91587402 234.17439941 -133.01000977 233.28198242 C-127.02526883 227.30511688 -121.61221363 221.03364172 -116.36181641 214.40673828 C-115.38478762 213.20293445 -114.40705406 211.99970183 -113.42822266 210.79736328 C-89.38979674 180.81685456 -64.7812316 140.2138899 -68.36181641 100.40673828 C-69.46541234 95.14584629 -71.25365577 91.07543887 -75.23681641 87.40673828 C-104.01789149 68.98685023 -154.23789105 105.21492649 -172.61572266 125.94970703 Z M216.63818359 331.40673828 C215.75130859 331.96361328 214.86443359 332.52048828 213.95068359 333.09423828 C207.23116019 339.81376168 203.38725295 348.49809986 203.20068359 357.96923828 C203.54744769 376.32847068 216.01323108 392.06994446 228.63818359 404.40673828 C254.94747612 428.65592307 296.55924928 440.26433425 331.71240234 440.64501953 C332.46669022 440.65463211 333.22097809 440.66424469 333.99812317 440.67414856 C336.44068988 440.6988118 338.88300681 440.71141531 341.32568359 440.71923828 C342.16067383 440.72252136 342.99566406 440.72580444 343.85595703 440.72918701 C361.3356487 440.75131215 380.01147565 440.2603932 396.63818359 434.40673828 C394.76483831 428.13378649 392.36783623 422.5327009 389.13818359 416.84423828 C388.7045752 416.07337891 388.2709668 415.30251953 387.82421875 414.50830078 C363.40141786 371.82733877 326.48458975 339.78309831 278.76318359 326.41455078 C269.76819803 324.11940125 261.11001779 323.04247945 251.82568359 323.09423828 C250.25355103 323.10161011 250.25355103 323.10161011 248.6496582 323.10913086 C236.96233464 323.28521276 226.51846354 324.70680596 216.63818359 331.40673828 Z M112.63818359 420.40673828 C90.41739356 445.77738257 87.2687753 490.70484932 88.74829102 522.79492188 C90.12486385 542.7851534 95.04289933 561.3370174 103.63818359 579.40673828 C103.97301758 580.1228125 104.30785156 580.83888672 104.65283203 581.57666016 C113.4406567 600.10510364 126.16249822 615.99973943 140.63818359 630.40673828 C141.14027344 630.91140625 141.64236328 631.41607422 142.15966797 631.93603516 C171.26015189 660.88110929 210.88803655 673.73250566 251.31738281 674.45458984 C293.49292228 674.3084008 333.33551854 657.44889315 363.63818359 628.40673828 C364.50572266 627.60236328 365.37326172 626.79798828 366.26708984 625.96923828 C389.95660266 603.32435547 407.81844397 570.18543415 411.63818359 537.40673828 C410.43548828 537.58849609 409.23279297 537.77025391 407.99365234 537.95751953 C403.27044355 538.6606952 398.54219734 539.32285446 393.81103516 539.97021484 C391.74179531 540.2549025 389.67337522 540.5456334 387.60595703 540.84326172 C313.50771021 551.34706334 232.27279832 536.0887652 171.64306641 490.93896484 C146.48729102 471.71372783 128.98172393 448.41563738 114.63818359 420.40673828 C113.97818359 420.40673828 113.31818359 420.40673828 112.63818359 420.40673828 Z " fill="#08CF65" transform="translate(3782.36181640625,123.59326171875)"/>
<path d="M0 0 C1.19302734 0.43070801 1.19302734 0.43070801 2.41015625 0.87011719 C29.95832991 10.96602077 55.08040974 25.94672308 76.66015625 45.84765625 C78.96430584 47.96716614 81.31995434 50.01435342 83.6875 52.0625 C87.09004498 55.09094317 90.15259403 58.23292082 93.08203125 61.71875 C94.48718242 63.39004997 95.92735111 65.03207652 97.38671875 66.65625 C136.86409345 110.97901036 154.62395938 171.04277987 151.87548828 229.65527344 C148.52870054 286.304735 123.23050297 340.95228836 82 380 C92.40924257 388.05876844 103.25526992 395.48356204 114.07666016 402.97314453 C118.45663864 406.00993936 122.82297145 409.0660589 127.1875 412.125 C128.40336792 412.9768689 128.40336792 412.9768689 129.64379883 413.84594727 C131.27430954 414.9883609 132.90476222 416.13085736 134.53515625 417.2734375 C137.05382087 419.0377002 139.57361928 420.80033226 142.09375 422.5625 C150.60049615 428.51144426 159.09707332 434.47407914 167.57373047 440.46582031 C175.51479808 446.07585409 183.48365319 451.64610235 191.45166016 457.21777344 C196.46660744 460.72506556 201.47944858 464.23536713 206.49267578 467.74511719 C210.69623647 470.6878564 214.90032141 473.62984094 219.10546875 476.5703125 C227.60810465 482.51694129 236.10090706 488.47678902 244.57373047 494.46582031 C249.97686492 498.28290993 255.39220886 502.08231832 260.8125 505.875 C261.64257568 506.45588379 262.47265137 507.03676758 263.32788086 507.63525391 C267.65953392 510.66561472 271.99299955 513.69335886 276.328125 516.71875 C300.82160301 533.82160301 300.82160301 533.82160301 303 536 C303.09880784 538.47085596 303.13178084 540.91375606 303.12304783 543.38512516 C303.12420157 544.17166078 303.12535532 544.9581964 303.12654402 545.76856643 C303.12921675 548.43688247 303.12468417 551.1051397 303.12025452 553.77345276 C303.12069148 555.68769342 303.12156755 557.60193403 303.12284851 559.51617432 C303.12510417 564.81345625 303.12106087 570.11071818 303.11607273 575.40799756 C303.1117262 581.19420107 303.11316601 586.98040355 303.11389065 592.76660824 C303.11442373 604.01402889 303.10979257 615.26144159 303.10338932 626.5088602 C303.09620804 639.5104242 303.0953956 652.51198338 303.09460449 665.5135498 C303.08934754 699.86320113 303.07538652 734.21285069 303.0625 768.5625 C303.041875 845.266875 303.02125 921.97125 303 1001 C110.94 1001 -81.12 1001 -279 1001 C-274.18639284 992.57618747 -269.376784 984.20410082 -264.3125 975.9375 C-263.41204956 974.46253052 -263.41204956 974.46253052 -262.4934082 972.95776367 C-258.06195351 965.70845968 -253.58955316 958.48491764 -249.10668945 951.26733398 C-244.1488221 943.2711819 -239.27176319 935.22670263 -234.39730835 927.17959595 C-229.2973714 918.76197557 -224.15285897 910.37390345 -218.95532227 902.01611328 C-214.76955322 895.2729865 -210.65084947 888.49021254 -206.54199219 881.70010376 C-201.09318333 872.69629038 -195.61940924 863.71140786 -190 854.8125 C-189.50169678 854.02278809 -189.00339355 853.23307617 -188.48999023 852.41943359 C-185.13461922 847.13461922 -185.13461922 847.13461922 -184 846 C-182.23286938 845.90258512 -180.46179864 845.87628557 -178.69198513 845.87695217 C-177.53350675 845.87496112 -176.37502837 845.87297007 -175.18144459 845.87091869 C-173.2481216 845.87528795 -173.2481216 845.87528795 -171.27574158 845.87974548 C-169.9054446 845.8793099 -168.5351477 845.87843524 -167.16485125 845.87715632 C-163.38177756 845.87490879 -159.5987319 845.87893614 -155.81566179 845.88393438 C-151.74270333 845.88823501 -147.66974658 845.88679273 -143.5967865 845.8860321 C-136.53426168 845.88550662 -129.47174606 845.88865594 -122.40922356 845.89426994 C-112.19788119 845.90238168 -101.98654329 845.90499983 -91.77519805 845.90625793 C-75.20974865 845.90844897 -58.64430416 845.91511045 -42.07885742 845.92456055 C-25.98282903 845.93373334 -9.88680196 845.94081482 6.20922852 845.94506836 C7.20064832 845.94533108 8.19206813 845.94559381 9.21353097 845.94586449 C14.18697198 845.94716949 19.160413 845.9484332 24.13385403 845.94967639 C65.42257277 845.96005061 106.71128611 845.97767032 148 846 C148.26058201 817.03119019 148.43377652 788.0630154 148.48592833 759.09304406 C148.49216964 755.66863601 148.4991517 752.24422986 148.5065918 748.81982422 C148.50879479 747.79726963 148.50879479 747.79726963 148.51104229 746.75405738 C148.53655052 735.7329107 148.62198645 724.71300898 148.72979213 713.69239512 C148.8391696 702.37388128 148.88236331 691.05676922 148.86853737 679.73760867 C148.86285519 673.38330394 148.88682654 667.03227967 148.98260689 660.67862701 C149.07190785 654.69190693 149.08079212 648.71033515 149.02923203 642.72322273 C149.02430808 640.53182447 149.04823332 638.34013249 149.10386848 636.14943504 C149.68310944 624.89545849 149.68310944 624.89545849 145.32107615 614.94931698 C141.28297958 611.2855304 136.80934763 608.58291856 131.99235809 606.06696272 C129.39125973 604.67400279 127.04064942 603.00631309 124.66796875 601.2578125 C123.17472588 600.21318892 121.68123976 599.16891295 120.1875 598.125 C118.4934829 596.94011372 116.79947269 595.7552176 115.10546875 594.5703125 C114.26161621 593.98024414 113.41776367 593.39017578 112.54833984 592.78222656 C107.53339256 589.27493444 102.52055142 585.76463287 97.50732422 582.25488281 C93.30376353 579.3121436 89.09967859 576.37015906 84.89453125 573.4296875 C76.39189535 567.48305871 67.89909294 561.52321098 59.42626953 555.53417969 C51.48520192 549.92414591 43.51634681 544.35389765 35.54833984 538.78222656 C31.3645694 535.85623267 27.18235476 532.9280169 23 530 C21.33334098 528.83332241 19.66667431 527.66665575 18 526.5 C1.33333333 514.83333333 -15.33333333 503.16666667 -32 491.5 C-32.8259668 490.92185547 -33.65193359 490.34371094 -34.50292969 489.74804688 C-36.15995323 488.58806559 -37.81685543 487.42791096 -39.47363281 486.26757812 C-43.78683108 483.2471502 -48.10245988 480.23028209 -52.421875 477.21875 C-53.31390625 476.59613281 -54.2059375 475.97351563 -55.125 475.33203125 C-56.81691939 474.15121251 -58.50957247 472.971444 -60.203125 471.79296875 C-65.21310043 468.29433591 -70.13675445 464.69993322 -75 461 C-77.77878287 462.32770924 -80.30646109 463.80359341 -82.84375 465.546875 C-83.58488037 466.05468506 -84.32601074 466.56249512 -85.08959961 467.08569336 C-85.88503174 467.63491455 -86.68046387 468.18413574 -87.5 468.75 C-88.33732666 469.32564697 -89.17465332 469.90129395 -90.03735352 470.49438477 C-98.54880558 476.35645624 -107.01324321 482.28552001 -115.47070312 488.22509766 C-118.86254747 490.60528186 -122.25862632 492.97938833 -125.65454102 495.35375977 C-132.61402199 500.22036549 -139.56527575 505.09817702 -146.5 510 C-155.1308807 516.10075439 -163.78989054 522.16098513 -172.45166016 528.21777344 C-176.6354306 531.14376733 -180.81764524 534.0719831 -185 537 C-186.66665902 538.16667759 -188.33332569 539.33334425 -190 540.5 C-191.2375 541.36625 -191.2375 541.36625 -192.5 542.25 C-200 547.5 -200 547.5 -202.50073242 549.25048828 C-204.16498828 550.41548364 -205.82921361 551.5805226 -207.4934082 552.74560547 C-211.69670923 555.68820411 -215.90056181 558.63000904 -220.10546875 561.5703125 C-227.91438668 567.03176431 -235.7184538 572.49959932 -243.5 578 C-252.97733474 584.69907202 -262.48856139 591.34947949 -272 598 C-275.6044634 600.5204094 -279.20857368 603.04132272 -282.8125 605.5625 C-283.63016846 606.13403809 -284.44783691 606.70557617 -285.2902832 607.29443359 C-286.06718506 607.83793457 -286.84408691 608.38143555 -287.64453125 608.94140625 C-288.65543823 609.64825562 -288.65543823 609.64825562 -289.68676758 610.36938477 C-290.45013428 610.90748779 -291.21350098 611.44559082 -292 612 C-293.18456567 612.54555636 -294.36913134 613.09111273 -295.58959293 613.6532011 C-298.29466202 615.62053172 -298.92758455 616.66875558 -299.65145195 619.97988665 C-299.90481518 624.06113491 -299.92695913 628.09281568 -299.87974548 632.17939758 C-299.88692815 633.76765249 -299.89718138 635.355896 -299.91024405 636.94411343 C-299.93725984 641.31138805 -299.92063895 645.67758188 -299.89700234 650.04483616 C-299.87912598 654.753106 -299.90155915 659.46120202 -299.91912842 664.16944885 C-299.94403979 672.32769733 -299.94333938 680.48562246 -299.92530632 688.64388466 C-299.89927053 700.43933263 -299.91176295 712.23449143 -299.93369765 724.02993622 C-299.96823588 743.16655902 -299.97155955 762.30305516 -299.95532227 781.43969727 C-299.93961477 800.03054958 -299.9385653 818.62130728 -299.95727539 837.2121582 C-299.95842332 838.35785089 -299.95957125 839.50354357 -299.96075397 840.68395422 C-299.96660331 846.43148468 -299.97274132 852.17901478 -299.97902286 857.92654479 C-300.03077159 905.61776465 -300.02615324 953.30874674 -300 1001 C-351.15 1001 -402.3 1001 -455 1001 C-455.19832367 941.88090043 -455.36455185 882.76203525 -455.45958797 823.64270162 C-455.47081409 816.66682975 -455.48248306 809.69095864 -455.49438477 802.71508789 C-455.4955616 802.02090135 -455.49673843 801.32671481 -455.49795092 800.61149232 C-455.53630969 778.10697059 -455.6039162 755.60265211 -455.68667499 733.09825354 C-455.77396515 709.31848437 -455.82796052 685.53887256 -455.84679645 661.75894362 C-455.85915996 647.51105316 -455.89824066 633.26374616 -455.9712482 619.01603527 C-456.01873678 609.25247726 -456.03322027 599.4892219 -456.0215124 589.72555672 C-456.01573435 584.08797223 -456.02473442 578.45140888 -456.07284927 572.8140049 C-456.11656273 567.65473224 -456.11891724 562.49716974 -456.08809005 557.33781929 C-456.08427882 555.46957046 -456.09577184 553.60121608 -456.12394864 551.73317587 C-456.32262015 537.7510374 -456.32262015 537.7510374 -453.02297485 533.38258564 C-450.75027249 531.58397058 -448.59551842 530.2713332 -446 529 C-444.60624146 527.98957642 -444.60624146 527.98957642 -443.18432617 526.95874023 C-442.39517822 526.41419189 -441.60603027 525.86964355 -440.79296875 525.30859375 C-439.88691895 524.68114258 -438.98086914 524.05369141 -438.04736328 523.40722656 C-436.63173096 522.43221191 -436.63173096 522.43221191 -435.1875 521.4375 C-433.14695885 520.02499463 -431.10659756 518.61222939 -429.06640625 517.19921875 C-427.54104248 516.14420166 -427.54104248 516.14420166 -425.98486328 515.06787109 C-421.52176727 511.97590126 -417.07205064 508.86498679 -412.625 505.75 C-411.80475342 505.17564209 -410.98450684 504.60128418 -410.1394043 504.00952148 C-404.22480494 499.86498902 -398.32314906 495.70234591 -392.42553711 491.53369141 C-384.48476132 485.92375324 -376.51610613 480.35372936 -368.54833984 474.78222656 C-364.3645694 471.85623267 -360.18235476 468.9280169 -356 466 C-354.33334098 464.83332241 -352.66667431 463.66665575 -351 462.5 C-349.7625 461.63375 -349.7625 461.63375 -348.5 460.75 C-341 455.5 -341 455.5 -338.49926758 453.74951172 C-336.83501172 452.58451636 -335.17078639 451.4194774 -333.5065918 450.25439453 C-329.30329077 447.31179589 -325.09943819 444.36999096 -320.89453125 441.4296875 C-313.08561332 435.96823569 -305.2815462 430.50040068 -297.5 425 C-286.28857285 417.07518147 -275.03255648 409.21401534 -263.77734375 401.3515625 C-259.61580219 398.44400706 -255.45872315 395.53015789 -251.30371094 392.61328125 C-249.08425681 391.05900477 -246.85901548 389.51333751 -244.6328125 387.96875 C-243.33831551 387.06282307 -242.04403 386.15659385 -240.75 385.25 C-240.15912598 384.84362305 -239.56825195 384.43724609 -238.95947266 384.01855469 C-237.60299592 383.06235656 -236.29510959 382.03780305 -235 381 C-234.77123852 378.73491829 -234.77123852 378.73491829 -237.08984375 376.78515625 C-238.02957031 375.88667969 -238.96929687 374.98820312 -239.9375 374.0625 C-253.96576379 360.34978199 -265.37898805 344.04122278 -275 327 C-275.37366699 326.34837891 -275.74733398 325.69675781 -276.13232422 325.02539062 C-305.88304233 272.80621973 -310.81662836 210.14349462 -295.62109375 152.63671875 C-284.11319112 111.32915394 -259.50592388 70.280161 -226 43 C-224.87425861 42.03993114 -223.74934304 41.07889359 -222.625 40.1171875 C-162.00874645 -11.13306665 -74.7526462 -27.25489095 0 0 Z M-144.70043945 152.21459961 C-161.88855347 170.372896 -169.59711933 194.84129363 -169.2109375 219.49609375 C-168.42499939 242.11849758 -158.7055969 262.09908905 -144 279 C-143.48308594 279.60070312 -142.96617187 280.20140625 -142.43359375 280.8203125 C-127.40786549 297.01345323 -104.22831749 307.38769854 -82.234375 308.23828125 C-55.0218689 308.79328297 -31.57259173 301.22947624 -11.3671875 282.40795898 C6.151383 265.42243709 16.55941765 242.3878104 17.28540039 217.91625977 C17.58043014 194.33248541 9.65023922 170.28281595 -6.84667969 153.09423828 C-8.21583388 151.71415745 -9.60766211 150.3566877 -11 149 C-11.81339844 148.18917969 -12.62679687 147.37835938 -13.46484375 146.54296875 C-51.31451725 110.53363594 -109.34745841 116.53073703 -144.70043945 152.21459961 Z " fill="#08CF65" transform="translate(455,13)"/>
<path d="M0 0 C1.3293457 0.38381836 1.3293457 0.38381836 2.68554688 0.77539062 C31.83550101 9.45397084 59.23459049 25.2777541 83 44 C83.98484375 44.77085937 84.9696875 45.54171875 85.984375 46.3359375 C101.73132616 58.94260071 116.51369215 73.15852779 129 89 C129.9296089 90.11942081 130.86205838 91.23648692 131.796875 92.3515625 C139.82293836 102.00518793 146.57236296 112.22660559 153 123 C153.44085937 123.73057617 153.88171875 124.46115234 154.3359375 125.21386719 C176.59824185 162.40203468 188.99957218 207.58482432 189.203125 250.9140625 C189.21013931 251.91888168 189.21715363 252.92370087 189.22438049 253.95896912 C189.24177735 257.18102558 189.24823203 260.40289831 189.25 263.625 C189.25101212 265.27554886 189.25101212 265.27554886 189.25204468 266.95944214 C189.23654551 282.84580202 188.9145566 298.33919104 186 314 C185.82307617 314.99064453 185.64615234 315.98128906 185.46386719 317.00195312 C182.92509226 330.95425334 179.47494211 344.54563611 175 358 C174.7829541 358.66306152 174.5659082 359.32612305 174.34228516 360.00927734 C165.11644962 387.72933201 150.22815395 413.31320516 132 436 C131.23171875 436.98097656 130.4634375 437.96195313 129.671875 438.97265625 C118.78950015 452.65623499 106.41564985 465.77687545 93 477 C92.51241211 477.4120166 92.02482422 477.8240332 91.52246094 478.24853516 C42.34411232 519.5754998 -17.50787718 540.20693243 -81.5625 540.25 C-82.46773407 540.25067474 -83.37296814 540.25134949 -84.30563354 540.25204468 C-133.93697292 540.19354359 -185.23866666 528.63378686 -226 499 C-226.95519531 498.31679688 -227.91039063 497.63359375 -228.89453125 496.9296875 C-245.78584278 484.57667068 -261.10519943 470.50534473 -274 454 C-274.90368621 452.87398625 -275.80869994 451.74903698 -276.71484375 450.625 C-277.66457841 449.43791257 -278.61380354 448.2504173 -279.5625 447.0625 C-279.98547363 446.53793213 -280.40844727 446.01336426 -280.84423828 445.47290039 C-285.29056369 439.8478171 -288.97497005 434.03754492 -293 428 C-293.495 581.45 -293.495 581.45 -294 738 C-317.1 738 -340.2 738 -364 738 C-364 494.79 -364 251.58 -364 1 C-340.9 1 -317.8 1 -294 1 C-293.67 34 -293.34 67 -293 101 C-290.36 97.04 -287.72 93.08 -285 89 C-270.28717232 68.64575066 -253.27659041 49.9003973 -233 35 C-231.85922052 34.14083008 -230.71859587 33.28145453 -229.578125 32.421875 C-221.75480987 26.60431055 -213.59565899 21.63963499 -204.99267578 17.06152344 C-203.70307584 16.37453734 -202.41728838 15.68032535 -201.13623047 14.97753906 C-174.99251831 0.65891498 -145.47012041 -6.71985271 -116 -10 C-114.87174805 -10.1403064 -114.87174805 -10.1403064 -113.72070312 -10.28344727 C-75.66149594 -14.47494005 -36.63834061 -10.65800233 0 0 Z M-148 65 C-148.75410156 65.20963379 -149.50820312 65.41926758 -150.28515625 65.63525391 C-169.03093506 71.00358871 -187.11131088 79.70906215 -203 91 C-203.99644531 91.70511719 -204.99289063 92.41023438 -206.01953125 93.13671875 C-251.69383832 126.47956153 -282.7370703 174.21813292 -291.71875 230.2734375 C-292.21959023 233.8456068 -292.63985741 237.41113721 -293 241 C-293.11085938 242.01191406 -293.22171875 243.02382813 -293.3359375 244.06640625 C-298.04690788 293.91356578 -285.69817189 345.45553924 -256 386 C-255.54657227 386.62165039 -255.09314453 387.24330078 -254.62597656 387.88378906 C-222.68647012 431.16193694 -175.93438662 461.317847 -122.54394531 469.62548828 C-68.93173245 477.51811156 -13.57921396 467.77529454 31 436 C31.58426758 435.58395508 32.16853516 435.16791016 32.77050781 434.73925781 C41.44886848 428.47514059 49.29139172 421.40254166 57 414 C57.51449707 413.51273438 58.02899414 413.02546875 58.55908203 412.5234375 C95.96083975 377.00897889 117.60555548 326.46211023 119.23304749 275.06365967 C120.38994505 228.90022871 110.73279046 182.83698543 83 145 C82.23171875 143.948125 81.4634375 142.89625 80.671875 141.8125 C74.93253578 134.09573179 68.65915152 126.93510094 62 120 C61.46358887 119.43635742 60.92717773 118.87271484 60.37451172 118.29199219 C23.65200748 79.88341282 -26.15964779 58.14389296 -79.2421875 56.77734375 C-102.76032787 56.40101836 -125.30006694 58.65333997 -148 65 Z " fill="#081619" transform="translate(2668,322)"/>
<path d="M0 0 C362.44178684 0 362.44178684 0 432 69 C434.45834038 71.57607699 436.73090668 74.25775493 439 77 C439.78117187 77.87011719 440.56234375 78.74023438 441.3671875 79.63671875 C476.04000046 118.53761009 493.52601477 170.34910107 495 222 C495.02191406 222.73299316 495.04382812 223.46598633 495.06640625 224.22119141 C496.66843837 287.91531849 476.3268919 346.98072195 432.45458984 393.47070312 C424.74300398 401.57835231 416.89391407 409.16844282 408 416 C407.43941895 416.4316748 406.87883789 416.86334961 406.30126953 417.30810547 C365.18073507 448.77687634 316.18125936 463.42503764 264.70092773 463.22705078 C262.58626087 463.22643663 260.4715936 463.22670762 258.35692692 463.2277813 C252.74521172 463.22822882 247.13358357 463.21672207 241.52188873 463.20256042 C236.2366359 463.19108537 230.95140317 463.19062958 225.6661377 463.18920898 C210.25658048 463.17875618 194.84703911 463.15083364 179.4375 463.125 C127.7409375 463.063125 127.7409375 463.063125 75 463 C75 553.09 75 643.18 75 736 C50.25 736 25.5 736 0 736 C0 493.12 0 250.24 0 0 Z M75 71 C75 177.26 75 283.52 75 393 C124.314375 393.0928125 124.314375 393.0928125 174.625 393.1875 C190.14329834 393.22846802 190.14329834 393.22846802 205.97509766 393.27026367 C215.32328647 393.28030265 215.32328647 393.28030265 224.67147827 393.28633118 C228.80556154 393.28910382 232.93952692 393.30025617 237.07357788 393.31672668 C242.37403465 393.33755909 247.67432409 393.34342712 252.97481799 393.33921683 C254.90307837 393.34009504 256.83134561 393.34589105 258.75957036 393.35764539 C275.87884654 393.45701448 293.42495665 392.35046187 309.875 387.25 C310.72884277 386.99541016 311.58268555 386.74082031 312.46240234 386.47851562 C320.61462667 383.96451999 328.33945291 380.73622665 336 377 C337.4540625 376.29423828 337.4540625 376.29423828 338.9375 375.57421875 C351.74721059 368.96455704 362.68671108 359.96201886 373 350 C373.92554688 349.13761719 374.85109375 348.27523438 375.8046875 347.38671875 C400.64552262 323.63662852 414.3111685 290.63140293 419 257 C419.0942627 256.35554932 419.18852539 255.71109863 419.28564453 255.04711914 C420.25154243 247.66465268 420.2435948 240.24719798 420.25 232.8125 C420.25067474 232.10646637 420.25134949 231.40043274 420.25204468 230.67300415 C420.19708394 194.28334302 410.63958942 157.44438402 387 129 C386.54898926 128.44505859 386.09797852 127.89011719 385.63330078 127.31835938 C367.51066401 105.05323028 345.10803481 88.70276576 318 79 C317.01515625 78.63261719 316.0303125 78.26523438 315.015625 77.88671875 C311.71330576 76.75536864 308.38260018 75.85076371 305 75 C304.32106186 74.82857231 303.64212372 74.65714462 302.94261169 74.48052216 C281.28515414 69.34987617 258.91836908 70.47956568 236.82611084 70.59487915 C231.682567 70.61794589 226.5391041 70.61874699 221.39550781 70.62158203 C206.43029184 70.64243123 191.46514111 70.69827611 176.5 70.75 C143.005 70.8325 109.51 70.915 75 71 Z " fill="#081619" transform="translate(902,113)"/>
<path d="M0 0 C0.97727051 0.16628906 1.95454102 0.33257812 2.96142578 0.50390625 C47.8123482 8.35845404 89.63385043 27.35965469 125 56 C126.02351563 56.81855469 127.04703125 57.63710938 128.1015625 58.48046875 C144.62191073 71.99779924 160.51551685 87.66859986 173 105 C173.88607574 106.16133889 174.77551558 107.32011727 175.66796875 108.4765625 C204.8215889 146.60528864 220.27124955 191.71643288 226 239 C226.1045752 239.82419434 226.20915039 240.64838867 226.31689453 241.49755859 C227.39287737 251.28534527 227.24391224 261.16579257 227.25 271 C227.25101212 272.46863998 227.25101212 272.46863998 227.25204468 273.96694946 C227.23471607 289.83071998 226.59558757 305.31758654 224 321 C223.82839355 322.04559082 223.65678711 323.09118164 223.47998047 324.16845703 C216.19744114 366.95907013 198.86210922 406.87786126 172 441 C171.29488281 441.89847656 170.58976562 442.79695313 169.86328125 443.72265625 C156.93953284 459.84833874 142.36218091 475.35167338 126 488 C124.73528809 489.00471887 123.4709947 490.00996471 122.20703125 491.015625 C81.43174301 523.15841579 33.45888932 541.43531562 -18 547 C-19.31701904 547.14356934 -19.31701904 547.14356934 -20.66064453 547.29003906 C-29.92923789 548.18312749 -39.19643091 548.24337337 -48.5 548.25 C-49.35660217 548.25067474 -50.21320435 548.25134949 -51.09576416 548.25204468 C-115.12087839 548.1724725 -176.53972412 528.10499549 -226 487 C-227.00933594 486.17628906 -228.01867188 485.35257813 -229.05859375 484.50390625 C-243.25360027 472.75523315 -256.85099546 459.70247212 -268 445 C-268.79148437 444.00226563 -269.58296875 443.00453125 -270.3984375 441.9765625 C-308.8016457 393.43163581 -326.21189163 334.27533964 -326.25 272.875 C-326.25067474 271.89679291 -326.25134949 270.91858582 -326.25204468 269.91073608 C-326.23508714 254.40315133 -325.60919027 239.31872042 -323 224 C-322.83371094 222.98599121 -322.66742187 221.97198242 -322.49609375 220.92724609 C-314.97569131 176.22959495 -296.39912906 135.24939821 -268 100 C-266.88238281 98.57494141 -266.88238281 98.57494141 -265.7421875 97.12109375 C-259.4640328 89.37938209 -252.52203585 82.31072281 -245.5 75.25 C-245.01544342 74.76017639 -244.53088684 74.27035278 -244.03164673 73.76568604 C-237.37072197 67.04889355 -230.43977081 60.84781673 -223 55 C-221.99791504 54.20094238 -221.99791504 54.20094238 -220.97558594 53.38574219 C-185.63245798 25.4351391 -143.44666929 7.20892102 -99 0 C-98.13004395 -0.14953125 -97.26008789 -0.2990625 -96.36376953 -0.453125 C-65.38408813 -5.58598419 -30.91946019 -5.44534088 0 0 Z M-205 134 C-208.16978506 137.5522629 -211.1294456 141.20294203 -214 145 C-215.16015625 146.51013672 -215.16015625 146.51013672 -216.34375 148.05078125 C-250.23170279 193.16711815 -261.65183212 250.20594562 -254.03515625 305.58203125 C-248.63036037 340.86080318 -234.71022872 374.36099338 -212 402 C-211.53722656 402.5657373 -211.07445312 403.13147461 -210.59765625 403.71435547 C-175.19600816 446.70721062 -127.58620993 473.31171597 -72 479.3125 C-16.21755736 484.40411229 37.97757978 469.89529568 81.39453125 434.2265625 C93.40517747 424.21242209 104.46491343 413.42400071 114 401 C114.41427246 400.47277344 114.82854492 399.94554687 115.25537109 399.40234375 C149.3067723 355.9335428 161.87700252 300.26814781 155.875 245.875 C152.72434428 220.10240225 145.32357125 195.8251894 133 173 C132.51877686 172.09773682 132.51877686 172.09773682 132.02783203 171.17724609 C118.25889189 145.5344307 98.09441936 122.5214003 74.68554688 105.25439453 C73.06667129 104.04961719 71.47781538 102.80481735 69.890625 101.55859375 C-11.41482002 38.89691626 -130.76559889 58.97556923 -205 134 Z " fill="#081619" transform="translate(2005,314)"/>
<path d="M0 0 C0 22.44 0 44.88 0 68 C-10.89 68.99 -21.78 69.98 -33 71 C-66.35094183 77.09458836 -96.25693574 89.30375769 -121 113 C-121.845625 113.804375 -122.69125 114.60875 -123.5625 115.4375 C-124.366875 116.283125 -125.17125 117.12875 -126 118 C-126.63035156 118.62390625 -127.26070312 119.2478125 -127.91015625 119.890625 C-146.34197607 139.00510481 -156.21935464 165.79347852 -161.25 191.4375 C-161.40106201 192.19764404 -161.55212402 192.95778809 -161.70776367 193.7409668 C-165.14063834 212.61693698 -165.30886381 231.57900357 -165.31667423 250.69872522 C-165.32042132 254.51301922 -165.33560189 258.3272716 -165.34928894 262.14154053 C-165.37140156 268.72626544 -165.38651021 275.31097524 -165.39665604 281.89572906 C-165.41133505 291.41579316 -165.43689668 300.93580449 -165.46498732 310.45583734 C-165.51028924 325.90706759 -165.54697206 341.35830552 -165.578125 356.80957031 C-165.60837895 371.80567773 -165.64276028 386.80176646 -165.68261719 401.79785156 C-165.68507874 402.72453971 -165.68754028 403.65122786 -165.69007643 404.60599747 C-165.70245235 409.2556152 -165.71490863 413.9052327 -165.72740483 418.5548501 C-165.83072366 457.03654455 -165.9184006 495.51825216 -166 534 C-189.1 534 -212.2 534 -236 534 C-236 360.42 -236 186.84 -236 8 C-212.9 8 -189.8 8 -166 8 C-165.67 35.06 -165.34 62.12 -165 90 C-161.37 84.06 -157.74 78.12 -154 72 C-125.46723348 33.62834848 -87.50817158 9.64218868 -39.8125 2.1875 C-36.87850732 1.76073743 -33.94149979 1.37101329 -31 1 C-30.03578125 0.86851562 -29.0715625 0.73703125 -28.078125 0.6015625 C-18.73942374 -0.47151808 -9.41578517 0 0 0 Z " fill="#081619" transform="translate(1688,315)"/>
</svg>
